<?xml version="1.0" encoding="iso-8859-1"?>
<!-- Generator: Adobe Illustrator 19.0.0, SVG Export Plug-In . SVG Version: 6.00 Build 0)  -->
<svg xmlns="http://www.w3.org/2000/svg" xmlns:xlink="http://www.w3.org/1999/xlink" version="1.1" id="Capa_1" x="0px" y="0px" viewBox="0 0 512 512" style="enable-background:new 0 0 512 512;" xml:space="preserve" width="512px" height="512px">
<g>
	<g>
		<path d="M438.386,70.124c-66.931,0-131.516-24.656-181.418-69.259L256,0l-0.968,0.865    C205.129,45.468,140.544,70.124,73.614,70.124h-40.54V178.19c0,140.337,81.369,267.943,208.607,327.146L256,512l14.319-6.663    c127.238-59.203,208.607-186.81,208.607-327.146V70.124H438.386z M359.455,302.147h-55.411v55.411h-96.088v-55.411h-55.411V206.06    h55.411v-55.411h96.088v55.411h55.411V302.147z" fill="#193968"/>
	</g>
</g>
<g>
	<g>
		<polygon points="274.044,236.06 274.044,180.648 237.956,180.648 237.956,236.06 182.545,236.06 182.545,272.147 237.956,272.147     237.956,327.559 274.044,327.559 274.044,272.147 329.455,272.147 329.455,236.06   " fill="#193968"/>
	</g>
</g>
<g>
</g>
<g>
</g>
<g>
</g>
<g>
</g>
<g>
</g>
<g>
</g>
<g>
</g>
<g>
</g>
<g>
</g>
<g>
</g>
<g>
</g>
<g>
</g>
<g>
</g>
<g>
</g>
<g>
</g>
</svg>
