<?xml version="1.0"?>
<svg xmlns="http://www.w3.org/2000/svg" height="512px" viewBox="-15 0 448 448" width="512px"><path d="m104 424c-13.253906 0-24-10.746094-24-24v-160c0-13.253906 10.746094-24 24-24h16.472656l215.527344-57.734375v-134.265625c0-13.253906-10.746094-24-24-24h-288c-13.253906 0-24 10.746094-24 24v400c0 13.253906 10.746094 24 24 24h288c13.253906 0 24-10.746094 24-24zm72-232h-56v-16h56zm120-80h-80v-16h80zm-112-48h112v16h-112zm-48 0h32v16h-32zm0 32h64v16h-64zm-56-24h-16c-13.253906 0-24-10.746094-24-24s10.746094-24 24-24v-8h16v8c13.253906 0 24 10.746094 24 24h-16c0-4.417969-3.582031-8-8-8h-16c-4.417969 0-8 3.582031-8 8s3.582031 8 8 8h16c13.253906 0 24 10.746094 24 24s-10.746094 24-24 24v8h-16v-8c-13.253906 0-24-10.746094-24-24h16c0 4.417969 3.582031 8 8 8h16c4.417969 0 8-3.582031 8-8s-3.582031-8-8-8zm-40 72h240v16h-240zm0 32h64v16h-64zm0 0" fill="#193968"/><path d="m152 264h24v8h-24zm0 0" fill="#193968"/><path d="m152 288h24v8h-24zm0 0" fill="#193968"/><path d="m128 264h8v32h-8zm0 0" fill="#193968"/><path d="m182.304688 216h193.695312c1.230469.027344 2.460938.152344 3.671875.367188l-11.238281-41.96875c-1.171875-4.230469-5.535156-6.730469-9.777344-5.597657zm0 0" fill="#193968"/><path d="m304.855469 272.800781c.433593-1.894531 1.042969-3.742187 1.816406-5.519531.144531-.34375.3125-.671875.472656-1.007812.28125-.585938.519531-1.195313.800781-1.761719-1.289062-.335938-2.613281-.507813-3.945312-.511719-8.835938 0-16 7.164062-16 16s7.164062 16 16 16c1.347656.003906 2.695312-.167969 4-.503906-.304688-.542969-.535156-1.121094-.800781-1.679688-.183594-.390625-.375-.761718-.542969-1.152344-.757812-1.757812-1.355469-3.582031-1.785156-5.449218-.078125-.367188-.136719-.734375-.207032-1.109375-.417968-2.007813-.640624-4.054688-.664062-6.105469.019531-2.054688.238281-4.105469.648438-6.121094.070312-.359375.152343-.726562.207031-1.078125zm0 0" fill="#193968"/><path d="m336 264c-8.820312.042969-15.957031 7.179688-16 16-.039062 4.511719 1.878906 8.816406 5.257812 11.808594 5.28125 4.832031 13.132813 5.5625 19.21875 1.792968 6.085938-3.769531 8.929688-11.125 6.957032-18.007812-1.96875-6.882812-8.273438-11.617188-15.433594-11.59375zm0 0" fill="#193968"/><path d="m384 400v-160c0-4.417969-3.582031-8-8-8h-272c-4.417969 0-8 3.582031-8 8v160c0 4.417969 3.582031 8 8 8h272c4.417969 0 8-3.582031 8-8zm-272-96v-48c0-4.417969 3.582031-8 8-8h64c4.417969 0 8 3.582031 8 8v48c0 4.417969-3.582031 8-8 8h-64c-4.417969 0-8-3.582031-8-8zm96 40v16h-16v-16zm-32 0v16h-16v-16zm48 48h-64v-16h64zm16-32h-16v-16h16zm16-16h16v16h-16zm80 48h-64v-16h64zm-48-32v-16h16v16zm48 0h-16v-16h16zm0-48c-5.628906-.011719-11.148438-1.523438-16-4.375-4.851562 2.851562-10.371094 4.363281-16 4.375-13.488281.058594-25.566406-8.347656-30.195312-21.019531-4.628907-12.667969-.816407-26.882813 9.535156-35.53125 10.347656-8.652344 25.011718-9.882813 36.660156-3.082031 11.648438-6.800782 26.3125-5.570313 36.660156 3.082031 10.351563 8.648437 14.164063 22.863281 9.535156 35.53125-4.628906 12.671875-16.707031 21.078125-30.195312 21.019531zm0 0" fill="#193968"/><path d="m400 373.078125 12.480469-3.359375c4.25-1.148438 6.773437-5.511719 5.648437-9.765625l-18.128906-67.6875zm0 0" fill="#193968"/></svg>
