<?xml version="1.0" encoding="iso-8859-1"?>
<!-- Generator: Adobe Illustrator 19.0.0, SVG Export Plug-In . SVG Version: 6.00 Build 0)  -->
<svg xmlns="http://www.w3.org/2000/svg" xmlns:xlink="http://www.w3.org/1999/xlink" version="1.1" id="Capa_1" x="0px" y="0px" viewBox="0 0 512 512" style="enable-background:new 0 0 512 512;" xml:space="preserve" width="512px" height="512px">
<g>
	<g>
		<path d="M377,242c-74.443,0-135,60.557-135,135s60.557,135,135,135s135-60.557,135-135S451.443,242,377,242z M377,362    c24.814,0,45,20.186,45,45c0,19.53-12.578,36.024-30,42.237V467c0,8.291-6.709,15-15,15c-8.291,0-15-6.709-15-15v-17.763    c-17.422-6.213-30-22.707-30-42.237c0-8.291,6.709-15,15-15c8.291,0,15,6.709,15,15c0,8.276,6.724,15,15,15s15-6.724,15-15    s-6.724-15-15-15c-24.814,0-45-20.186-45-45c0-19.53,12.578-36.024,30-42.237V287c0-8.291,6.709-15,15-15c8.291,0,15,6.709,15,15    v17.763c17.422,6.213,30,22.707,30,42.237c0,8.291-6.709,15-15,15c-8.291,0-15-6.709-15-15c0-8.276-6.724-15-15-15    s-15,6.724-15,15S368.724,362,377,362z" fill="#193968"/>
	</g>
</g>
<g>
	<g>
		<path d="M135,0C60.557,0,0,60.557,0,135s60.557,135,135,135s135-60.557,135-135S209.443,0,135,0z M135,120    c24.814,0,45,20.186,45,45c0,19.53-12.578,36.024-30,42.237V225c0,8.291-6.709,15-15,15s-15-6.709-15-15v-17.763    C102.578,201.024,90,184.53,90,165c0-8.291,6.709-15,15-15s15,6.709,15,15c0,8.276,6.724,15,15,15s15-6.724,15-15s-6.724-15-15-15    c-24.814,0-45-20.186-45-45c0-19.53,12.578-36.024,30-42.237V45c0-8.291,6.709-15,15-15s15,6.709,15,15v17.763    c17.422,6.213,30,22.707,30,42.237c0,8.291-6.709,15-15,15s-15-6.709-15-15c0-8.276-6.724-15-15-15s-15,6.724-15,15    S126.724,120,135,120z" fill="#193968"/>
	</g>
</g>
<g>
	<g>
		<path d="M505.32,122.52l-92-60c-4.614-3.062-10.547-3.354-15.396-0.747C393.047,64.38,390,69.463,390,75v15h-96.396    c4.072,14.328,6.396,29.385,6.396,45s-2.324,30.672-6.396,45H390v15c0,5.537,3.047,10.62,7.925,13.228    c2.212,1.187,4.644,1.772,7.075,1.772c2.915,0,5.815-0.85,8.32-2.52l92-60c4.175-2.783,6.68-7.471,6.68-12.48    C512,129.991,509.495,125.303,505.32,122.52z" fill="#193968"/>
	</g>
</g>
<g>
	<g>
		<path d="M220.17,332.001H119.995V332v-15c0-12.003-13.425-19.098-23.32-12.48l-90,60c-8.899,5.933-8.899,19.028,0,24.961l90,60    c9.932,6.621,23.32-0.496,23.32-12.48v-15H220.17c-4.072-14.328-6.396-29.385-6.396-45S216.098,346.329,220.17,332.001z" fill="#193968"/>
	</g>
</g>
<g>
</g>
<g>
</g>
<g>
</g>
<g>
</g>
<g>
</g>
<g>
</g>
<g>
</g>
<g>
</g>
<g>
</g>
<g>
</g>
<g>
</g>
<g>
</g>
<g>
</g>
<g>
</g>
<g>
</g>
</svg>
