<?xml version="1.0"?>
<svg xmlns="http://www.w3.org/2000/svg" height="512px" viewBox="0 -3 468.85999 468" width="512px"><path d="m316.535156 111.738281c-6.710937 9.523438-5.613281 22.492188 2.605469 30.75 8.429687 7.996094 21.300781 9.023438 30.890625 2.464844-13.820312-8.03125-25.347656-19.46875-33.488281-33.222656zm0 0" fill="#193968"/><path d="m353.078125 108.546875c-6.082031-6.21875-15.117187-8.539063-23.441406-6.015625 7.039062 12.222656 17.234375 22.335938 29.511719 29.277344 2.300781-8.28125-.015626-17.160156-6.070313-23.261719zm0 0" fill="#193968"/><path d="m466.613281 130.203125c3.03125-3.140625 2.988281-8.128906-.097656-11.214844-3.085937-3.085937-8.074219-3.128906-11.214844-.097656-11.144531 11.210937-25.394531 18.828125-40.910156 21.871094-3.367187.667969-6.773437 1.125-10.199219 1.359375l2.75 15.824218c22.542969-1.910156 43.683594-11.738281 59.671875-27.742187zm0 0" fill="#193968"/><path d="m417.328125 220.539062-10.785156-62.570312c-2.695313.234375-5.382813.410156-8.074219.410156-11.226562-.042968-22.355469-2.101562-32.855469-6.074218-.4375.488281-.800781 1.03125-1.222656 1.503906-15.625 15.621094-40.953125 15.621094-56.574219-.003906-15.617187-15.621094-15.617187-40.949219.007813-56.570313 3.003906-2.546875 6.214843-4.84375 9.597656-6.863281 14.410156-7.785156 32.121094-5.929688 44.601563 4.675781 12.480468 10.605469 17.171874 27.78125 11.816406 43.257813 9.644531 3.21875 19.824218 4.519531 29.964844 3.824218l-11.429688-66.34375c-.574219-3.339844-3.191406-5.953125-6.527344-6.527344l-64.976562-11.199218c2.386718-16.625 9.976562-32.0625 21.679687-44.105469 3.035157-3.179687 2.9375-8.207031-.21875-11.265625-3.15625-3.058594-8.1875-3-11.269531.128906-13.945312 14.355469-23.019531 32.730469-25.945312 52.527344l-64-11.039062c-.449219-.078126-.902344-.117188-1.359376-.121094-2.117187.003906-4.148437.847656-5.648437 2.347656l-231.765625 231.726562c-3.125 3.125-3.125 8.1875 0 11.3125l169.71875 169.71875c3.125 3.125 8.1875 3.125 11.3125 0l231.765625-231.742187c1.820313-1.847656 2.636719-4.457031 2.1875-7.007813zm-409.3125 63.375 11.3125-11.3125 11.308594 11.3125-11.308594 11.3125zm22.621094 22.625 11.3125-11.3125 11.320312 11.3125-11.320312 11.320313zm22.625 22.628907 11.320312-11.308594 11.3125 11.316406-11.320312 11.3125zm22.632812 22.632812 11.3125-11.3125 11.3125 11.3125-11.3125 11.3125zm22.625 22.625 11.3125-11.3125 11.316407 11.3125-11.308594 11.3125zm33.941407 33.9375-11.3125-11.3125 11.3125-11.3125 11.3125 11.3125zm11.3125 11.316407 11.320312-11.308594 11.3125 11.308594-11.3125 11.3125zm33.945312 33.9375-11.3125-11.3125 11.3125-11.3125 11.3125 11.3125zm107.480469-220.617188-33.945313-33.933594c-9.5-9.066406-24.445312-9.066406-33.945312 0l-11.308594 11.3125 39.597656 39.589844-11.3125 11.3125-39.597656-39.589844-11.3125 11.308594 33.933594 33.945312-11.308594 11.3125-33.9375-33.945312-22.632812 22.632812c-9.367188 9.371094-9.367188 24.5625 0 33.9375l33.945312 33.949219-11.3125 11.3125-33.945312-33.949219c-15.613282-15.621093-15.613282-40.941406 0-56.5625l22.625-22.632812-16.976563-16.964844 11.320313-11.3125 16.976562 16.96875 11.3125-11.3125-11.3125-11.3125 11.3125-11.3125 11.3125 11.3125 11.3125-11.3125c15.621094-15.621094 40.945312-15.621094 56.566406 0l33.945313 33.9375zm0 0" fill="#193968"/></svg>
