<?xml version="1.0" encoding="iso-8859-1"?>
<!-- Generator: Adobe Illustrator 19.1.0, SVG Export Plug-In . SVG Version: 6.00 Build 0)  -->
<svg xmlns="http://www.w3.org/2000/svg" xmlns:xlink="http://www.w3.org/1999/xlink" version="1.1" id="Capa_1" x="0px" y="0px" viewBox="0 0 333.842 333.842" style="enable-background:new 0 0 333.842 333.842;" xml:space="preserve" width="512px" height="512px">
<g>
	<path d="M166.911,333.832C74.879,333.832,0,258.96,0,166.921S74.873,0.01,166.911,0.01c92.045,0,166.931,74.879,166.931,166.918   S258.956,333.832,166.911,333.832z M166.911,12.863c-84.95,0-154.058,69.108-154.058,154.064   c0,84.943,69.108,154.058,154.058,154.058c84.956,0,154.077-69.114,154.077-154.058C320.982,81.971,251.868,12.863,166.911,12.863z    M154.026,106.181c0-15.971-12.989-28.966-28.966-28.966S96.094,90.21,96.094,106.181c0,5.328,4.319,9.64,9.64,9.64   c5.321,0,9.64-4.312,9.64-9.64c0-5.341,4.345-9.685,9.685-9.685c5.341,0,9.685,4.345,9.685,9.685c0,5.328,4.319,9.64,9.64,9.64   S154.026,111.509,154.026,106.181z M237.741,106.181c0-15.971-12.989-28.966-28.966-28.966S179.81,90.21,179.81,106.181   c0,5.328,4.319,9.64,9.64,9.64c5.321,0,9.64-4.312,9.64-9.64c0-5.341,4.345-9.685,9.685-9.685s9.685,4.345,9.685,9.685   c0,5.328,4.319,9.64,9.64,9.64S237.741,111.509,237.741,106.181z M166.918,263.908c56.563,0,102.431-45.855,102.431-102.424H64.487   C64.487,218.053,110.342,263.908,166.918,263.908z" fill="#193968"/>
</g>
<g>
</g>
<g>
</g>
<g>
</g>
<g>
</g>
<g>
</g>
<g>
</g>
<g>
</g>
<g>
</g>
<g>
</g>
<g>
</g>
<g>
</g>
<g>
</g>
<g>
</g>
<g>
</g>
<g>
</g>
</svg>
